<svg xmlns="http://www.w3.org/2000/svg" viewBox="0 0 1200 480" width="1200" height="480">
  <defs>
    <linearGradient id="bg" x1="0%" y1="0%" x2="100%" y2="100%">
      <stop offset="0%" style="stop-color:#0d1117"/>
      <stop offset="50%" style="stop-color:#161b22"/>
      <stop offset="100%" style="stop-color:#0d1117"/>
    </linearGradient>

    <linearGradient id="title" x1="0%" y1="0%" x2="100%" y2="0%">
      <stop offset="0%" style="stop-color:#58a6ff"/>
      <stop offset="50%" style="stop-color:#bc8cff"/>
      <stop offset="100%" style="stop-color:#3fb950"/>
    </linearGradient>

    <linearGradient id="piGrad" x1="0%" y1="0%" x2="100%" y2="100%">
      <stop offset="0%" style="stop-color:#8b5cf6"/>
      <stop offset="100%" style="stop-color:#a78bfa"/>
    </linearGradient>

    <filter id="glow" x="-20%" y="-20%" width="140%" height="140%">
      <feGaussianBlur stdDeviation="6" result="blur"/>
      <feComposite in="SourceGraphic" in2="blur" operator="over"/>
    </filter>

    <pattern id="dots" width="20" height="20" patternUnits="userSpaceOnUse">
      <circle cx="2" cy="2" r="0.8" fill="#30363d" opacity="0.4"/>
    </pattern>
  </defs>

  <!-- Background -->
  <rect width="1200" height="480" fill="url(#bg)"/>
  <rect width="1200" height="480" fill="url(#dots)"/>

  <circle cx="1050" cy="100" r="300" fill="#bc8cff" opacity="0.03"/>
  <circle cx="1150" cy="400" r="200" fill="#3fb950" opacity="0.03"/>

  <!-- ===== PI LOGO (left) ===== -->
  <g transform="translate(60, 140)">
    <circle cx="60" cy="60" r="72" fill="none" stroke="#8b5cf6" stroke-width="2" opacity="0.3"/>
    <circle cx="60" cy="60" r="62" fill="none" stroke="#8b5cf6" stroke-width="1" opacity="0.1"/>
    <g transform="translate(18, 18) scale(2.6)">
      <path fill="#8b5cf6" fill-rule="evenodd" d="M0 0H15V10H10V15H5V20H0ZM5 5V10H10V5Z"/>
      <rect x="15" y="10" width="5" height="10" fill="#8b5cf6"/>
    </g>
  </g>

  <!-- ===== TITLE ===== -->
  <text x="240" y="195" font-family="'Segoe UI', -apple-system, system-ui, sans-serif" font-size="72" font-weight="700" letter-spacing="-1.5" fill="url(#title)" filter="url(#glow)">
    GreedySearch
  </text>

  <!-- ===== "No API keys" badge ===== -->
  <g transform="translate(240, 218)">
    <rect x="0" y="0" width="155" height="28" rx="14" fill="#1f6feb" opacity="0.15"/>
    <rect x="0" y="0" width="155" height="28" rx="14" fill="none" stroke="#1f6feb" stroke-width="1" opacity="0.3"/>
    <text x="77" y="19" font-family="'Segoe UI', -apple-system, system-ui, sans-serif" font-size="13" font-weight="600" fill="#58a6ff" text-anchor="middle">🔑 No API keys</text>
  </g>

  <!-- ===== TAGLINE ===== -->
  <text x="240" y="280" font-family="'Segoe UI', -apple-system, system-ui, sans-serif" font-size="20" font-weight="400" fill="#8b949e" letter-spacing="0.3">
    Multi-engine AI search via browser automation.
  </text>

  <!-- ===== ENGINE PILLS ===== -->
  <g transform="translate(240, 310)">
    <!-- Perplexity -->
    <rect x="0" y="0" width="115" height="30" rx="15" fill="#00c8b4" opacity="0.12"/>
    <rect x="0" y="0" width="115" height="30" rx="15" fill="none" stroke="#00c8b4" stroke-width="1" opacity="0.3"/>
    <text x="57" y="20" font-family="'Segoe UI', -apple-system, system-ui, sans-serif" font-size="13" font-weight="600" fill="#00c8b4" text-anchor="middle">Perplexity</text>

    <!-- Bing -->
    <rect x="130" y="0" width="115" height="30" rx="15" fill="#00a4ef" opacity="0.12"/>
    <rect x="130" y="0" width="115" height="30" rx="15" fill="none" stroke="#00a4ef" stroke-width="1" opacity="0.3"/>
    <text x="187" y="20" font-family="'Segoe UI', -apple-system, system-ui, sans-serif" font-size="13" font-weight="600" fill="#00a4ef" text-anchor="middle">Bing Copilot</text>

    <!-- Google AI -->
    <rect x="260" y="0" width="115" height="30" rx="15" fill="#fbbc04" opacity="0.12"/>
    <rect x="260" y="0" width="115" height="30" rx="15" fill="none" stroke="#fbbc04" stroke-width="1" opacity="0.3"/>
    <text x="317" y="20" font-family="'Segoe UI', -apple-system, system-ui, sans-serif" font-size="13" font-weight="600" fill="#fbbc04" text-anchor="middle">Google AI</text>

    <!-- Gemini -->
    <rect x="390" y="0" width="100" height="30" rx="15" fill="#8b5cf6" opacity="0.12"/>
    <rect x="390" y="0" width="100" height="30" rx="15" fill="none" stroke="#8b5cf6" stroke-width="1" opacity="0.3"/>
    <text x="440" y="20" font-family="'Segoe UI', -apple-system, system-ui, sans-serif" font-size="13" font-weight="600" fill="#a78bfa" text-anchor="middle">Gemini</text>
  </g>
</svg>