<svg width="1100" height="310" viewBox="0 0 1100 310" xmlns="http://www.w3.org/2000/svg">
  <defs>
    <linearGradient id="bg" x1="0%" y1="0%" x2="100%" y2="100%">
      <stop offset="0%" stop-color="#0d1117"/>
      <stop offset="100%" stop-color="#161b22"/>
    </linearGradient>
    <linearGradient id="accent" x1="0%" y1="0%" x2="100%" y2="100%">
      <stop offset="0%" stop-color="#2f81f7"/>
      <stop offset="100%" stop-color="#58a6ff"/>
    </linearGradient>
    <linearGradient id="accentFade" x1="0%" y1="0%" x2="100%" y2="0%">
      <stop offset="0%" stop-color="#2f81f7"/>
      <stop offset="100%" stop-color="#2f81f700"/>
    </linearGradient>
    <clipPath id="bounds">
      <rect width="1100" height="310" rx="12"/>
    </clipPath>
  </defs>

  <!-- Background -->
  <rect width="1100" height="310" fill="url(#bg)" rx="12"/>

  <!-- Top accent line -->
  <rect x="0" y="0" width="1100" height="3" fill="url(#accent)" rx="1.5" clip-path="url(#bounds)"/>

  <!-- Decorative aperture rings (right side) -->
  <g opacity="0.07" clip-path="url(#bounds)">
    <circle cx="920" cy="155" r="180" fill="none" stroke="#2f81f7" stroke-width="1.5"/>
    <circle cx="920" cy="155" r="145" fill="none" stroke="#2f81f7" stroke-width="1"/>
    <circle cx="920" cy="155" r="110" fill="none" stroke="#2f81f7" stroke-width="1"/>
    <circle cx="920" cy="155" r="75"  fill="none" stroke="#2f81f7" stroke-width="1"/>
    <line x1="740" y1="155" x2="1100" y2="155" stroke="#2f81f7" stroke-width="0.8"/>
    <line x1="920" y1="-40"  x2="920"  y2="350"  stroke="#2f81f7" stroke-width="0.8"/>
    <line x1="793" y1="28"   x2="1047" y2="282"  stroke="#2f81f7" stroke-width="0.6"/>
    <line x1="1047" y1="28"  x2="793"  y2="282"  stroke="#2f81f7" stroke-width="0.6"/>
  </g>

  <!-- Lens icon -->
  <!-- Outer ring glow -->
  <circle cx="142" cy="130" r="70" fill="#2f81f708"/>
  <!-- Lens circle -->
  <circle cx="142" cy="130" r="63" fill="#2f81f710" stroke="url(#accent)" stroke-width="4.5"/>
  <!-- Inner ring -->
  <circle cx="142" cy="130" r="48" fill="none" stroke="#2f81f740" stroke-width="1.5"/>
  <!-- Handle -->
  <line x1="191" y1="179" x2="222" y2="214" stroke="url(#accent)" stroke-width="8" stroke-linecap="round"/>
  <!-- Code brackets inside lens -->
  <text x="110" y="145" font-family="'Courier New', Courier, monospace" font-size="34" font-weight="700" fill="#58a6ff">&lt;/&gt;</text>

  <!-- pi-lens wordmark -->
  <text x="258" y="122" font-family="-apple-system, BlinkMacSystemFont, 'Segoe UI', Helvetica, sans-serif" font-size="74" font-weight="700" fill="#e6edf3" letter-spacing="-2">pi-lens</text>

  <!-- Tagline -->
  <text x="261" y="164" font-family="-apple-system, BlinkMacSystemFont, 'Segoe UI', Helvetica, sans-serif" font-size="21" font-weight="400" fill="#8b949e" letter-spacing="0.3">Real-time code intelligence for AI agents</text>

  <!-- Feature pills — row 1 -->
  <g font-family="-apple-system, BlinkMacSystemFont, 'Segoe UI', Helvetica, sans-serif" font-size="12" font-weight="500">
    <rect x="261" y="196" width="56"  height="24" rx="12" fill="#2f81f715" stroke="#2f81f740" stroke-width="1"/>
    <text x="289" y="213" fill="#58a6ff" text-anchor="middle">LSP</text>

    <rect x="327" y="196" width="68"  height="24" rx="12" fill="#2f81f715" stroke="#2f81f740" stroke-width="1"/>
    <text x="361" y="213" fill="#58a6ff" text-anchor="middle">Linters</text>

    <rect x="405" y="196" width="90"  height="24" rx="12" fill="#2f81f715" stroke="#2f81f740" stroke-width="1"/>
    <text x="450" y="213" fill="#58a6ff" text-anchor="middle">Formatters</text>

    <rect x="505" y="196" width="84"  height="24" rx="12" fill="#2f81f715" stroke="#2f81f740" stroke-width="1"/>
    <text x="547" y="213" fill="#58a6ff" text-anchor="middle">Auto-Fix</text>

    <rect x="599" y="196" width="100" height="24" rx="12" fill="#2f81f715" stroke="#2f81f740" stroke-width="1"/>
    <text x="649" y="213" fill="#58a6ff" text-anchor="middle">Read-Guard</text>
  </g>

  <!-- Feature pills — row 2 -->
  <g font-family="-apple-system, BlinkMacSystemFont, 'Segoe UI', Helvetica, sans-serif" font-size="12" font-weight="500">
    <rect x="261" y="228" width="152" height="24" rx="12" fill="#2f81f715" stroke="#2f81f740" stroke-width="1"/>
    <text x="337" y="245" fill="#58a6ff" text-anchor="middle">Structural Analysis</text>

    <rect x="423" y="228" width="96"  height="24" rx="12" fill="#2f81f715" stroke="#2f81f740" stroke-width="1"/>
    <text x="471" y="245" fill="#58a6ff" text-anchor="middle">Cascade</text>

    <rect x="529" y="228" width="100" height="24" rx="12" fill="#2f81f715" stroke="#2f81f740" stroke-width="1"/>
    <text x="579" y="245" fill="#58a6ff" text-anchor="middle">Tree-sitter</text>

    <rect x="639" y="228" width="96"  height="24" rx="12" fill="#2f81f715" stroke="#2f81f740" stroke-width="1"/>
    <text x="687" y="245" fill="#58a6ff" text-anchor="middle">ast-grep</text>
  </g>
</svg>
