<svg xmlns="http://www.w3.org/2000/svg" viewBox="0 0 160 78.5" width="800" height="392">
<!-- SVG created with Arrow, by QuiverAI (https://quiver.ai) -->
  <style type="text/css">.cls-0 {fill:#11141D;}
.cls-1 {fill:url(#SVGID_1_);}
.cls-2 {fill:#4F90FF;}
.cls-3 {fill:none;stroke:#FFFFFF;stroke-width:0.5436;stroke-linecap:round;stroke-miterlimit:10;stroke-dasharray:2.7181,3.4026;}
.cls-4 {fill:#FFFFFF;}</style>
  <rect class="cls-0" width="160" height="78.5"/>
  <radialGradient id="SVGID_1_" cx="120" cy="37.94" r="36.95" gradientUnits="userSpaceOnUse">
    <stop stop-color="#1E345E" offset="0"/>
    <stop stop-color="#11141D" offset="1"/>
  </radialGradient>
  <path class="cls-1" d="m160 0h-80v78.5h80v-78.5z"/>
  <path class="cls-2" d="m151.6 33.2c-0.1 0-0.1 0 0 0-1.3-3.9-3.5-6.9-6.1-9.1 1.4-2.5-0.5-6.1-3.5-5.9-0.8-0.2-1.7 0.1-2.2 0.5-1.7-1-3.7-2.1-6.8-3.2 0.1-1.6-2-4.2-5-4.2-1.4 0.1-2.5 0.9-3.3 2.2-3.7-0.3-7.4 0-11.9 1.1-0.6-0.7-1.8-1.1-3.2-1.1-2.2 0-4.6 2.2-4.4 4.8-3.3 1.4-6.8 4.1-9.5 8.3-2.6-0.6-5.3 1.8-5.2 4.2 0 1.4 0.6 2.8 1.8 3.6-0.7 5.4 1.1 9.1 5.9 11.1-0.2 2.3 2 4.6 4.2 4.6s4.7-1.7 4.5-4.5l13.5-2.7 0.2 0.5-6.5 5.5c-3.2-1.9-6.7 0.7-6.6 4.2 0.1 2.7 4.1 5.8 7.6 2.6 2.3 0.9 3.8 0.9 6.7 0.5 0.6 1.8 2.8 3.3 4.4 2.9l3.8 5.7c-2.1 2.8-0.1 7.7 4.1 7.5 4.5-0.4 5.5-6.5 1.5-8.8-1-0.6-2.1-0.8-3.4-0.4l-3.3-4.9c0.2-0.2 0.6-0.4 0.7-0.7 1.9 0.9 4.8 1.9 7.5 1.9 3-0.1 5.9-1.2 8-3.4 2.5 0.7 6.4-2.2 4.4-6.5 1.6-2.4 2.6-4.6 2.9-7.9 4-1.1 4.5-7.5-0.8-8.4zm-19-15.1c1.8 0.5 3.4 1.4 5.5 2.6-1 1.2-0.7 3.7 0.5 5.2l-2.6 4.5c-1-0.5-2.6-0.4-3.6 0.3l-3-2.5c0.8-1.7 0.1-4-1.5-5.1l0.3-2.5c1.7 0.1 3.7-1.1 4.4-2.5zm-18.7 3.4h-0.9 0.9zm10.1-5.1c0 1.1 0.9 2.6 1.9 3.2l-0.7 2.6c-2.7-0.2-4.7 2.4-4.5 4.8 0.3 3.6 4.3 5.6 6.9 3.2l2.9 2.3c-0.5 0.7-0.9 2.5-0.3 3.4l-3.3 1.8c-2.7-2.1-6.5-0.8-7 2.8l-13.7 2.9c-1.8-2.4-5-3.2-7.1-0.3-3.6-1.3-4.6-3.7-4.2-7.7 1.2 0.2 3-0.8 3.8-2 2.8 0.8 5.9 1.7 7.7 1.6l5-0.4c2.2 3.6 6.5 3.5 8.2 0 1.5-3.1-0.9-6.5-4-6.4l-3-6.7c1-0.8 1.8-2.5 1.3-4 2.8-0.9 6.2-1.3 10.1-1.1zm-17.9 4.5c0.8 1.2 2.4 2.3 4.1 1.8l2.9 6.2c-1 0.6-2 2.2-1.9 3.3l-4.7 0.3c-2.4-0.3-4.8-1-7-1.6 0.1-0.9-0.6-2.3-1.3-3 2.3-3.3 5-5.3 7.9-7zm24.1 34c0.2-0.8-0.3-1.9-0.8-2.5l3.3-3c1.3 1 3.5 0.5 5.2-0.9l4 2.1c-0.5 1 0.2 3 0.8 3.8-2.6 3-7.3 3.5-12.5 0.5zm17.3-7.9v0.1l-0.1 0.1v0.1l-0.2 0.2v0.1l-0.2 0.2v0.1l-0.1 0.1c-1.7-1.1-3.3-0.8-3.8-0.3-0.5 0.2-0.6 0.4 0 0-0.2 0.2-0.7 0.5 0 0-0.2 0.2-0.6 0.5-0.9 0.8l-3.1-1.6h-0.1v-0.1h-0.1l-0.1-0.1h-0.1l-0.1-0.1h-0.1l0.6 0.3h-0.1v-0.1h-0.1l-0.1-0.1h-0.1l-0.1-0.1c1-3.6-3.5-7.1-6.7-4.7-1.7 1.2-2.7 3.7-1.2 5.6l-3.3 3.2c-2.3-0.7-4.5 0.3-5.5 2.8l-3.3 0.3-2.2-0.3c0.2-0.8 0.2-1.9-0.5-2.8l6.3-5.7c2.4 1.6 7.2 0 6.3-5l3.1-2.1c3.1 2.6 8 0.6 7.6-4-0.1-0.8-0.5-1.7-1-2.3l2.7-4.4c1.3 0.5 2.7 0.2 3.5-0.8 2.1 1.5 3.7 4.3 4.3 7.4-3.3 1.8-2.5 7.2 0.9 8 0 2.1-1 4.1-1.4 4.8v0.1h-0.1v0.1l-0.1 0.1v0.1h-0.1v0.1h-0.1v0.1 0.1h-0.1v0.1l-0.1 0.1v0.1h-0.1v0.1z"/>
  <path class="cls-3" d="m51.1 9.5c5.5-3.6 12.5-6.9 23.5-6.9 10 0 15.6 1.5 23.9 6.5l4.1 3.9"/>
  <path class="cls-4" d="m26.7 30.2v-12.8h-24.2v51.3h11.7v-13.1h12.4v-12.5h-12.3v-12.8l12.4-0.1z"/>
  <path class="cls-4" d="m26.7 30.2v12.9h13v-12.9h-13z"/>
  <path class="cls-4" d="m39.6 10.9v13.4h12.9v-13.4h-12.9z"/>
</svg>